<svg width="20" height="20" viewBox="0 0 20 20" fill="none" xmlns="http://www.w3.org/2000/svg">
<path d="M7.29949 0H12.7005C13.8205 0 14.7087 -8.0237e-08 15.4236 0.0584615C16.1559 0.117949 16.7744 0.243077 17.3405 0.530256C18.2571 0.99779 19.0021 1.74351 19.4687 2.66051C19.7569 3.22462 19.8821 3.8441 19.9415 4.57641C20 5.29128 20 6.17949 20 7.29949V12.7005C20 13.8205 20 14.7087 19.9415 15.4236C19.8821 16.1559 19.7569 16.7744 19.4697 17.3405C19.0025 18.2569 18.2571 19.0019 17.3405 19.4687C16.7744 19.7569 16.1559 19.8821 15.4236 19.9415C14.7087 20 13.8205 20 12.7005 20H7.29949C6.17949 20 5.29128 20 4.57641 19.9415C3.8441 19.8821 3.22564 19.7569 2.66051 19.4697C1.74373 19.0027 0.998374 18.2573 0.531282 17.3405C0.243077 16.7744 0.117949 16.1559 0.0584615 15.4236C-8.0237e-08 14.7087 0 13.8205 0 12.7005V7.29949C0 6.17949 -8.0237e-08 5.29128 0.0584615 4.57641C0.117949 3.8441 0.243077 3.22564 0.530256 2.66051C0.997615 1.74358 1.74335 0.998199 2.66051 0.531282C3.22462 0.243077 3.8441 0.117949 4.57641 0.0584615C5.29128 -8.0237e-08 6.17949 0 7.29949 0ZM4.70154 1.59179C4.06564 1.64308 3.67077 1.74256 3.35795 1.90154C2.7309 2.22109 2.22109 2.7309 1.90154 3.35795C1.74256 3.67077 1.6441 4.06564 1.59179 4.70154C1.53949 5.34769 1.53846 6.17231 1.53846 7.33333V12.6667C1.53846 13.8287 1.53846 14.6533 1.59179 15.2985C1.64308 15.9344 1.74256 16.3292 1.90154 16.6421C2.22109 17.2691 2.7309 17.7789 3.35795 18.0985C3.67077 18.2574 4.06564 18.3559 4.70154 18.4082C5.10359 18.441 5.57436 18.4533 6.15385 18.4595V1.54051C5.57436 1.54564 5.10359 1.55897 4.70154 1.59179ZM11.5077 6.37949C11.3636 6.52372 11.2827 6.71923 11.2827 6.92308C11.2827 7.12692 11.3636 7.32244 11.5077 7.46667L14.041 10L11.5077 12.5333C11.4321 12.6038 11.3715 12.6887 11.3295 12.783C11.2874 12.8774 11.2648 12.9793 11.263 13.0825C11.2612 13.1858 11.2802 13.2884 11.3188 13.3842C11.3575 13.48 11.4151 13.567 11.4882 13.64C11.5612 13.7131 11.6482 13.7707 11.744 13.8094C11.8398 13.848 11.9424 13.867 12.0457 13.8652C12.1489 13.8634 12.2508 13.8408 12.3452 13.7988C12.4395 13.7567 12.5244 13.6961 12.5949 13.6205L15.6718 10.5436C15.8158 10.3994 15.8968 10.2038 15.8968 10C15.8968 9.79615 15.8158 9.60064 15.6718 9.45641L12.5949 6.37949C12.4506 6.23544 12.2551 6.15452 12.0513 6.15452C11.8474 6.15452 11.6519 6.23544 11.5077 6.37949Z" fill="#FAFAFA"/>
</svg>
