<svg width="20" height="20" viewBox="0 0 20 20" fill="none" xmlns="http://www.w3.org/2000/svg">
<path d="M7.29949 0H12.7005C13.8205 0 14.7087 -8.0237e-08 15.4236 0.0584615C16.1559 0.117949 16.7744 0.243077 17.3405 0.530256C18.2571 0.99779 19.0021 1.74351 19.4687 2.66051C19.7569 3.22462 19.8821 3.8441 19.9415 4.57641C20 5.29128 20 6.17949 20 7.29949V12.7005C20 13.8205 20 14.7087 19.9415 15.4236C19.8821 16.1559 19.7569 16.7744 19.4697 17.3405C19.0025 18.2569 18.2571 19.0019 17.3405 19.4687C16.7744 19.7569 16.1559 19.8821 15.4236 19.9415C14.7087 20 13.8205 20 12.7005 20H7.29949C6.17949 20 5.29128 20 4.57641 19.9415C3.8441 19.8821 3.22564 19.7569 2.66051 19.4697C1.74373 19.0027 0.998374 18.2573 0.531282 17.3405C0.243077 16.7744 0.117949 16.1559 0.0584615 15.4236C-8.0237e-08 14.7087 0 13.8205 0 12.7005V7.29949C0 6.17949 -8.0237e-08 5.29128 0.0584615 4.57641C0.117949 3.8441 0.243077 3.22564 0.530256 2.66051C0.997615 1.74358 1.74335 0.998199 2.66051 0.531282C3.22462 0.243077 3.8441 0.117949 4.57641 0.0584615C5.29128 -8.0237e-08 6.17949 0 7.29949 0ZM4.70154 1.59179C4.06564 1.64308 3.67077 1.74256 3.35795 1.90154C2.7309 2.22109 2.22109 2.7309 1.90154 3.35795C1.74256 3.67077 1.6441 4.06564 1.59179 4.70154C1.53949 5.34769 1.53846 6.17231 1.53846 7.33333V12.6667C1.53846 13.8287 1.53846 14.6533 1.59179 15.2985C1.64308 15.9344 1.74256 16.3292 1.90154 16.6421C2.22109 17.2691 2.7309 17.7789 3.35795 18.0985C3.67077 18.2574 4.06564 18.3559 4.70154 18.4082C5.10359 18.441 5.57436 18.4533 6.15385 18.4595V1.54051C5.57436 1.54564 5.10359 1.55897 4.70154 1.59179ZM14.6462 6.37949C14.5019 6.23544 14.3064 6.15452 14.1026 6.15452C13.8987 6.15452 13.7032 6.23544 13.559 6.37949L10.4821 9.45641C10.338 9.60064 10.2571 9.79615 10.2571 10C10.2571 10.2038 10.338 10.3994 10.4821 10.5436L13.559 13.6205C13.6294 13.6961 13.7143 13.7567 13.8087 13.7988C13.903 13.8408 14.0049 13.8634 14.1082 13.8652C14.2115 13.867 14.3141 13.848 14.4098 13.8094C14.5056 13.7707 14.5926 13.7131 14.6657 13.64C14.7387 13.567 14.7963 13.48 14.835 13.3842C14.8737 13.2884 14.8927 13.1858 14.8909 13.0825C14.889 12.9793 14.8664 12.8774 14.8244 12.783C14.7823 12.6887 14.7217 12.6038 14.6462 12.5333L12.1128 10L14.6462 7.46667C14.7902 7.32244 14.8711 7.12692 14.8711 6.92308C14.8711 6.71923 14.7902 6.52372 14.6462 6.37949Z" fill="#FAFAFA"/>
</svg>
