<svg width="20" height="20" viewBox="0 0 20 20" fill="none" xmlns="http://www.w3.org/2000/svg">
<path d="M5.55556 15.5556C5.87037 15.5556 6.13444 15.4489 6.34778 15.2356C6.56111 15.0222 6.66741 14.7585 6.66667 14.4444C6.66593 14.1304 6.55926 13.8667 6.34667 13.6533C6.13407 13.44 5.87037 13.3333 5.55556 13.3333C5.24074 13.3333 4.97704 13.44 4.76444 13.6533C4.55185 13.8667 4.44518 14.1304 4.44444 14.4444C4.4437 14.7585 4.55037 15.0226 4.76444 15.2367C4.97852 15.4507 5.24222 15.557 5.55556 15.5556ZM5.55556 11.1111C5.87037 11.1111 6.13444 11.0044 6.34778 10.7911C6.56111 10.5778 6.66741 10.3141 6.66667 10C6.66593 9.68593 6.55926 9.42222 6.34667 9.20889C6.13407 8.99555 5.87037 8.88889 5.55556 8.88889C5.24074 8.88889 4.97704 8.99555 4.76444 9.20889C4.55185 9.42222 4.44518 9.68593 4.44444 10C4.4437 10.3141 4.55037 10.5781 4.76444 10.7922C4.97852 11.0063 5.24222 11.1126 5.55556 11.1111ZM5.55556 6.66667C5.87037 6.66667 6.13444 6.56 6.34778 6.34667C6.56111 6.13333 6.66741 5.86963 6.66667 5.55556C6.66593 5.24148 6.55926 4.97778 6.34667 4.76444C6.13407 4.55111 5.87037 4.44444 5.55556 4.44444C5.24074 4.44444 4.97704 4.55111 4.76444 4.76444C4.55185 4.97778 4.44518 5.24148 4.44444 5.55556C4.4437 5.86963 4.55037 6.1337 4.76444 6.34778C4.97852 6.56185 5.24222 6.66815 5.55556 6.66667ZM10 15.5556H14.4444C14.7593 15.5556 15.0233 15.4489 15.2367 15.2356C15.45 15.0222 15.5563 14.7585 15.5556 14.4444C15.5548 14.1304 15.4481 13.8667 15.2356 13.6533C15.023 13.44 14.7593 13.3333 14.4444 13.3333H10C9.68518 13.3333 9.42148 13.44 9.20889 13.6533C8.9963 13.8667 8.88963 14.1304 8.88889 14.4444C8.88815 14.7585 8.99481 15.0226 9.20889 15.2367C9.42296 15.4507 9.68667 15.557 10 15.5556ZM10 11.1111H14.4444C14.7593 11.1111 15.0233 11.0044 15.2367 10.7911C15.45 10.5778 15.5563 10.3141 15.5556 10C15.5548 9.68593 15.4481 9.42222 15.2356 9.20889C15.023 8.99555 14.7593 8.88889 14.4444 8.88889H10C9.68518 8.88889 9.42148 8.99555 9.20889 9.20889C8.9963 9.42222 8.88963 9.68593 8.88889 10C8.88815 10.3141 8.99481 10.5781 9.20889 10.7922C9.42296 11.0063 9.68667 11.1126 10 11.1111ZM10 6.66667H14.4444C14.7593 6.66667 15.0233 6.56 15.2367 6.34667C15.45 6.13333 15.5563 5.86963 15.5556 5.55556C15.5548 5.24148 15.4481 4.97778 15.2356 4.76444C15.023 4.55111 14.7593 4.44444 14.4444 4.44444H10C9.68518 4.44444 9.42148 4.55111 9.20889 4.76444C8.9963 4.97778 8.88963 5.24148 8.88889 5.55556C8.88815 5.86963 8.99481 6.1337 9.20889 6.34778C9.42296 6.56185 9.68667 6.66815 10 6.66667ZM2.22222 20C1.61111 20 1.08815 19.7826 0.653333 19.3478C0.218519 18.913 0.000740741 18.3896 0 17.7778V2.22222C0 1.61111 0.217778 1.08815 0.653333 0.653333C1.08889 0.218519 1.61185 0.000740741 2.22222 0H17.7778C18.3889 0 18.9122 0.217778 19.3478 0.653333C19.7833 1.08889 20.0007 1.61185 20 2.22222V17.7778C20 18.3889 19.7826 18.9122 19.3478 19.3478C18.913 19.7833 18.3896 20.0007 17.7778 20H2.22222Z" fill="#FAFAFA"/>
</svg>
