<svg width="20" height="16" viewBox="0 0 20 16" fill="none" xmlns="http://www.w3.org/2000/svg">
<path d="M0 1.89091C0 0.976485 0.677949 0 1.79487 0H18.2051C19.3221 0 20 0.976485 20 1.89091V5.38182C20 6.29624 19.3221 7.27273 18.2051 7.27273H1.79487C0.677949 7.27273 0 6.29624 0 5.38182V1.89091ZM3.84615 2.90909C3.64214 2.90909 3.44648 2.98571 3.30223 3.1221C3.15797 3.25849 3.07692 3.44348 3.07692 3.63636C3.07692 3.82925 3.15797 4.01423 3.30223 4.15062C3.44648 4.28701 3.64214 4.36364 3.84615 4.36364H5.89744C6.10145 4.36364 6.29711 4.28701 6.44136 4.15062C6.58562 4.01423 6.66667 3.82925 6.66667 3.63636C6.66667 3.44348 6.58562 3.25849 6.44136 3.1221C6.29711 2.98571 6.10145 2.90909 5.89744 2.90909H3.84615ZM0 10.6182C0 9.70376 0.677949 8.72727 1.79487 8.72727H18.2051C19.3221 8.72727 20 9.70376 20 10.6182V14.1091C20 15.0235 19.3221 16 18.2051 16H1.79487C0.677949 16 0 15.0235 0 14.1091V10.6182ZM3.84615 11.6364C3.64214 11.6364 3.44648 11.713 3.30223 11.8494C3.15797 11.9858 3.07692 12.1708 3.07692 12.3636C3.07692 12.5565 3.15797 12.7415 3.30223 12.8779C3.44648 13.0143 3.64214 13.0909 3.84615 13.0909H5.89744C6.10145 13.0909 6.29711 13.0143 6.44136 12.8779C6.58562 12.7415 6.66667 12.5565 6.66667 12.3636C6.66667 12.1708 6.58562 11.9858 6.44136 11.8494C6.29711 11.713 6.10145 11.6364 5.89744 11.6364H3.84615Z" fill="#FAFAFA"/>
</svg>
