<svg width="20" height="19" viewBox="0 0 20 19" fill="none" xmlns="http://www.w3.org/2000/svg">
<path d="M3.33644 2.048C4.36334 1.12852 5.56924 0.431257 6.87844 0C7.25306 0.468824 7.72837 0.847347 8.26915 1.10752C8.80993 1.3677 9.40232 1.50287 10.0024 1.503C10.6025 1.50299 11.1948 1.36798 11.7356 1.10798C12.2764 0.847973 12.7517 0.46964 13.1264 0.000999928C14.4356 0.432257 15.6415 1.12952 16.6684 2.049C16.4504 2.60755 16.3608 3.20797 16.4062 3.80583C16.4515 4.4037 16.6307 4.98372 16.9304 5.503C17.2304 6.02276 17.6435 6.46836 18.1391 6.80679C18.6347 7.14521 19.2001 7.36778 19.7934 7.458C20.0752 8.80677 20.0752 10.1992 19.7934 11.548C18.6334 11.726 17.5634 12.408 16.9304 13.503C16.6305 14.0224 16.4513 14.6026 16.4059 15.2007C16.3606 15.7987 16.4503 16.3993 16.6684 16.958C15.6414 17.8771 14.4356 18.574 13.1264 19.005C12.7517 18.5364 12.2764 18.158 11.7356 17.898C11.1948 17.638 10.6025 17.503 10.0024 17.503C9.40232 17.5031 8.80993 17.6383 8.26915 17.8985C7.72837 18.1587 7.25306 18.5372 6.87844 19.006C5.56924 18.5747 4.36334 17.8775 3.33644 16.958C3.55459 16.3993 3.64431 15.7987 3.59895 15.2007C3.5536 14.6026 3.37434 14.0224 3.07444 13.503C2.77433 12.9834 2.36118 12.538 1.86559 12.1998C1.36999 11.8615 0.804653 11.6391 0.211439 11.549C-0.0704796 10.1999 -0.0704796 8.8071 0.211439 7.458C0.804743 7.36778 1.37014 7.14521 1.86574 6.80679C2.36134 6.46836 2.77445 6.02276 3.07444 5.503C3.37419 4.98372 3.55336 4.4037 3.59871 3.80583C3.64407 3.20797 3.55443 2.60655 3.33644 2.048ZM11.5024 12.1C11.8464 11.9045 12.1482 11.6428 12.3906 11.3301C12.633 11.0174 12.8112 10.6599 12.9149 10.2781C13.0185 9.89626 13.0456 9.49771 12.9946 9.10537C12.9437 8.71303 12.8156 8.33465 12.6177 7.99202C12.4199 7.64938 12.1563 7.34927 11.842 7.10894C11.5277 6.86862 11.169 6.69283 10.7865 6.5917C10.404 6.49058 10.0053 6.46611 9.61326 6.51971C9.22127 6.5733 8.84375 6.70391 8.50244 6.904C7.81902 7.30465 7.32181 7.95936 7.11933 8.72525C6.91684 9.49113 7.02551 10.306 7.42161 10.9921C7.81772 11.6781 8.46912 12.1797 9.23365 12.3872C9.99817 12.5948 10.8138 12.4916 11.5024 12.1Z" fill="#FAFAFA"/>
</svg>
